<svg width="86" height="25" viewBox="0 0 86 25" fill="none" xmlns="http://www.w3.org/2000/svg">
<path d="M10.6696 1.83855C11.9958 1.83855 13.0808 2.03948 13.9247 2.44135C14.7888 2.82313 15.5523 3.27523 16.2154 3.79766C16.6173 4.09906 16.9187 4.13925 17.1196 3.91822C17.3406 3.6771 17.4913 3.12453 17.5717 2.26051H18.2649C18.2247 3.04415 18.1946 3.99859 18.1745 5.12382C18.1544 6.22896 18.1444 7.70583 18.1444 9.55442H17.4511C17.3507 8.63013 17.2201 7.84648 17.0593 7.20349C16.8986 6.54041 16.6775 5.9577 16.3962 5.45536C16.1149 4.95303 15.7131 4.50093 15.1906 4.09906C14.6883 3.59672 14.1056 3.22499 13.4425 2.98387C12.7794 2.74275 12.0862 2.62219 11.3628 2.62219C10.2778 2.62219 9.35349 2.91355 8.58994 3.49625C7.82639 4.05887 7.20349 4.83247 6.72125 5.81705C6.2591 6.80162 5.91751 7.91681 5.69648 9.1626C5.47546 10.3883 5.36494 11.6642 5.36494 12.9904C5.36494 14.3367 5.47546 15.6327 5.69648 16.8785C5.93761 18.1042 6.29929 19.1993 6.78153 20.1637C7.28386 21.1282 7.92685 21.8918 8.7105 22.4544C9.49414 23.017 10.4184 23.2983 11.4834 23.2983C12.1465 23.2983 12.8096 23.1778 13.4726 22.9366C14.1558 22.6754 14.7385 22.3037 15.2208 21.8215C16.0044 21.2187 16.5369 20.4752 16.8182 19.5911C17.0995 18.6869 17.3105 17.4913 17.4511 16.0044H18.1444C18.1444 17.9133 18.1544 19.4605 18.1745 20.646C18.1946 21.8114 18.2247 22.796 18.2649 23.5997H17.5717C17.4913 22.7357 17.3507 22.1932 17.1497 21.9722C16.9689 21.7511 16.6574 21.7813 16.2154 22.0626C15.4719 22.585 14.6782 23.0472 13.8343 23.449C13.0105 23.8308 11.9455 24.0217 10.6395 24.0217C8.50956 24.0217 6.64088 23.5897 5.0334 22.7257C3.44602 21.8616 2.21028 20.6158 1.32617 18.9883C0.442055 17.3607 0 15.4016 0 13.111C0 10.8605 0.452102 8.89134 1.35631 7.20349C2.2806 5.51564 3.53644 4.19953 5.12382 3.25514C6.7313 2.31074 8.57989 1.83855 10.6696 1.83855Z" fill="#B1D6CE"/>
<path d="M28.4546 7.59531C29.9215 7.59531 31.2074 7.86657 32.3126 8.4091C33.4177 8.95162 34.2817 9.82568 34.9046 11.0313C35.5275 12.2369 35.839 13.8343 35.839 15.8236C35.839 17.8128 35.5275 19.4102 34.9046 20.6159C34.2817 21.8014 33.4177 22.6654 32.3126 23.2079C31.2074 23.7504 29.9215 24.0217 28.4546 24.0217C27.028 24.0217 25.7521 23.7504 24.6268 23.2079C23.5217 22.6654 22.6476 21.8014 22.0046 20.6159C21.3818 19.4102 21.0703 17.8128 21.0703 15.8236C21.0703 13.8343 21.3818 12.2369 22.0046 11.0313C22.6476 9.82568 23.5217 8.95162 24.6268 8.4091C25.7521 7.86657 27.028 7.59531 28.4546 7.59531ZM28.4546 8.19812C27.6509 8.19812 26.9778 8.80092 26.4352 10.0065C25.8927 11.192 25.6215 13.1311 25.6215 15.8236C25.6215 18.5161 25.8927 20.4551 26.4352 21.6406C26.9778 22.8261 27.6509 23.4189 28.4546 23.4189C29.2785 23.4189 29.9516 22.8261 30.474 21.6406C31.0165 20.4551 31.2878 18.5161 31.2878 15.8236C31.2878 13.1311 31.0165 11.192 30.474 10.0065C29.9516 8.80092 29.2785 8.19812 28.4546 8.19812Z" fill="#B1D6CE"/>
<path d="M52.5496 0V20.2843C52.5496 21.1885 52.6902 21.8616 52.9715 22.3037C53.2528 22.7257 53.7552 22.9366 54.4785 22.9366V23.5696C53.8556 23.5093 53.2327 23.4792 52.6098 23.4792C51.7659 23.4792 50.9722 23.5093 50.2288 23.5696C49.5054 23.6299 48.8323 23.7404 48.2094 23.9011V3.61682C48.2094 2.71261 48.0687 2.04953 47.7874 1.62757C47.5262 1.18551 47.0239 0.964484 46.2804 0.964484V0.331543C46.9234 0.391822 47.5463 0.421962 48.1491 0.421962C48.9729 0.421962 49.7566 0.391822 50.5 0.331543C51.2435 0.251169 51.9267 0.140655 52.5496 0ZM44.8638 7.59531C45.7479 7.59531 46.5215 7.74601 47.1846 8.04741C47.8678 8.32872 48.4003 8.81097 48.782 9.49414L48.4203 9.82568C48.1591 9.34344 47.8075 9.00185 47.3654 8.80092C46.9435 8.57989 46.4914 8.46938 46.0091 8.46938C44.9844 8.46938 44.1706 9.07218 43.5678 10.2778C42.965 11.4633 42.6736 13.3018 42.6937 15.7934C42.6937 17.5014 42.8042 18.8677 43.0253 19.8925C43.2664 20.8972 43.5979 21.6205 44.0199 22.0626C44.4619 22.5046 44.9643 22.7257 45.5269 22.7257C46.2101 22.7257 46.8229 22.4544 47.3654 21.9119C47.908 21.3694 48.1993 20.6359 48.2395 19.7116L48.3902 20.7666C48.0888 21.8315 47.5965 22.6453 46.9133 23.2079C46.2503 23.7504 45.3762 24.0217 44.2912 24.0217C43.1056 24.0217 42.0407 23.7303 41.0963 23.1476C40.172 22.5649 39.4486 21.6708 38.9262 20.4651C38.4038 19.2395 38.1426 17.6621 38.1426 15.7331C38.1426 13.9046 38.4339 12.3976 39.0166 11.2121C39.5993 10.0065 40.393 9.10232 41.3977 8.49952C42.4225 7.89671 43.5778 7.59531 44.8638 7.59531Z" fill="#B1D6CE"/>
<path d="M63.5102 7.59531C65.2784 7.59531 66.6649 8.11774 67.6695 9.1626C68.6742 10.2075 69.1765 11.9154 69.1765 14.2864H59.2604L59.2002 13.7138H65.3789C65.399 12.7292 65.3387 11.825 65.198 11.0011C65.0574 10.1572 64.8364 9.48409 64.535 8.98176C64.2336 8.47942 63.8317 8.22826 63.3294 8.22826C62.6261 8.22826 62.0233 8.67031 61.5209 9.55442C61.0387 10.4385 60.7473 11.9054 60.6469 13.9549L60.7373 14.1357C60.7172 14.3768 60.6971 14.628 60.677 14.8892C60.677 15.1504 60.677 15.4217 60.677 15.703C60.677 17.0895 60.8679 18.2147 61.2497 19.0787C61.6516 19.9427 62.1539 20.5757 62.7567 20.9775C63.3595 21.3593 63.9723 21.5502 64.5952 21.5502C65.0172 21.5502 65.4492 21.4899 65.8913 21.3694C66.3534 21.2287 66.8156 20.9876 67.2777 20.646C67.7399 20.2843 68.1719 19.782 68.5737 19.139L69.1163 19.3198C68.8751 20.0834 68.4934 20.8268 67.9709 21.5502C67.4485 22.2736 66.7854 22.8663 65.9817 23.3285C65.1779 23.7906 64.2135 24.0217 63.0882 24.0217C61.7219 24.0217 60.5163 23.7303 59.4714 23.1476C58.4266 22.5649 57.6027 21.6808 56.9999 20.4953C56.4172 19.3098 56.1259 17.8028 56.1259 15.9743C56.1259 14.1056 56.4373 12.5483 57.0602 11.3025C57.7032 10.0568 58.5773 9.13246 59.6824 8.52966C60.8076 7.90676 62.0836 7.59531 63.5102 7.59531Z" fill="#B1D6CE"/>
<path d="M85.1852 8.01727V8.62008C84.8034 8.72054 84.4417 8.96167 84.1001 9.34344C83.7586 9.70512 83.427 10.328 83.1055 11.2121L78.7051 23.66C78.3836 23.6399 78.052 23.6299 77.7104 23.6299C77.3889 23.6299 77.0674 23.6399 76.7459 23.66L71.381 10.3381C71.0595 9.55442 70.738 9.08223 70.4165 8.92148C70.1151 8.74064 69.8539 8.65022 69.6329 8.65022V8.01727C70.2759 8.05746 70.9389 8.09765 71.6221 8.13784C72.3254 8.15793 73.089 8.16798 73.9128 8.16798C74.5357 8.16798 75.1887 8.15793 75.8719 8.13784C76.5752 8.09765 77.2282 8.05746 77.831 8.01727V8.65022C77.409 8.65022 77.0273 8.67031 76.6857 8.7105C76.3642 8.75068 76.1432 8.88129 76.0226 9.10232C75.902 9.32335 75.9221 9.71517 76.0829 10.2778L79.6093 19.6212L79.3079 20.0432L81.6889 13.4425C82.0707 12.3575 82.2315 11.4733 82.1712 10.7902C82.1109 10.0869 81.8899 9.56447 81.5081 9.22288C81.1263 8.8612 80.6139 8.66026 79.9709 8.62008V8.01727C80.2723 8.03737 80.5938 8.05746 80.9354 8.07755C81.2971 8.07755 81.6387 8.0876 81.9602 8.1077C82.3018 8.1077 82.6032 8.1077 82.8644 8.1077C83.2663 8.1077 83.6882 8.09765 84.1303 8.07755C84.5723 8.05746 84.924 8.03737 85.1852 8.01727Z" fill="#B1D6CE"/>
</svg>
