<svg width="86" height="25" viewBox="0 0 86 25" fill="none" xmlns="http://www.w3.org/2000/svg">
<path d="M10.6696 2.32768C11.9958 2.32768 13.0808 2.52862 13.9247 2.93049C14.7888 3.31226 15.5523 3.76436 16.2154 4.28679C16.6173 4.58819 16.9187 4.62838 17.1196 4.40735C17.3406 4.16623 17.4913 3.61366 17.5717 2.74965H18.2649C18.2247 3.53329 18.1946 4.48773 18.1745 5.61296C18.1544 6.7181 18.1444 8.19496 18.1444 10.0436H17.4511C17.3507 9.11926 17.2201 8.33562 17.0593 7.69263C16.8986 7.02954 16.6775 6.44684 16.3962 5.9445C16.1149 5.44216 15.7131 4.99006 15.1906 4.58819C14.6883 4.08586 14.1056 3.71413 13.4425 3.47301C12.7794 3.23189 12.0862 3.11133 11.3628 3.11133C10.2778 3.11133 9.35349 3.40268 8.58994 3.98539C7.82639 4.54801 7.20349 5.3216 6.72125 6.30618C6.2591 7.29076 5.91751 8.40594 5.69648 9.65174C5.47546 10.8774 5.36494 12.1534 5.36494 13.4795C5.36494 14.8258 5.47546 16.1218 5.69648 17.3676C5.93761 18.5933 6.29929 19.6884 6.78153 20.6529C7.28386 21.6174 7.92685 22.3809 8.7105 22.9435C9.49414 23.5061 10.4184 23.7875 11.4834 23.7875C12.1465 23.7875 12.8096 23.6669 13.4726 23.4258C14.1558 23.1646 14.7385 22.7928 15.2208 22.3106C16.0044 21.7078 16.5369 20.9643 16.8182 20.0802C17.0995 19.176 17.3105 17.9805 17.4511 16.4935H18.1444C18.1444 18.4024 18.1544 19.9496 18.1745 21.1351C18.1946 22.3005 18.2247 23.2851 18.2649 24.0889H17.5717C17.4913 23.2248 17.3507 22.6823 17.1497 22.4613C16.9689 22.2403 16.6574 22.2704 16.2154 22.5517C15.4719 23.0741 14.6782 23.5363 13.8343 23.9382C13.0105 24.3199 11.9455 24.5108 10.6395 24.5108C8.50956 24.5108 6.64088 24.0788 5.0334 23.2148C3.44602 22.3508 2.21028 21.105 1.32617 19.4774C0.442055 17.8499 0 15.8907 0 13.6001C0 11.3496 0.452102 9.38048 1.35631 7.69263C2.2806 6.00478 3.53644 4.68866 5.12382 3.74427C6.7313 2.79988 8.57989 2.32768 10.6696 2.32768Z" fill="#B1D6CE"/>
<path d="M28.4546 8.08445C29.9215 8.08445 31.2074 8.35571 32.3126 8.89823C33.4177 9.44075 34.2817 10.3148 34.9046 11.5204C35.5275 12.726 35.839 14.3235 35.839 16.3127C35.839 18.302 35.5275 19.8994 34.9046 21.105C34.2817 22.2905 33.4177 23.1545 32.3126 23.697C31.2074 24.2396 29.9215 24.5108 28.4546 24.5108C27.028 24.5108 25.7521 24.2396 24.6268 23.697C23.5217 23.1545 22.6476 22.2905 22.0046 21.105C21.3818 19.8994 21.0703 18.302 21.0703 16.3127C21.0703 14.3235 21.3818 12.726 22.0046 11.5204C22.6476 10.3148 23.5217 9.44075 24.6268 8.89823C25.7521 8.35571 27.028 8.08445 28.4546 8.08445ZM28.4546 8.68725C27.6509 8.68725 26.9778 9.29005 26.4352 10.4957C25.8927 11.6812 25.6215 13.6202 25.6215 16.3127C25.6215 19.0052 25.8927 20.9442 26.4352 22.1297C26.9778 23.3153 27.6509 23.908 28.4546 23.908C29.2785 23.908 29.9516 23.3153 30.474 22.1297C31.0165 20.9442 31.2878 19.0052 31.2878 16.3127C31.2878 13.6202 31.0165 11.6812 30.474 10.4957C29.9516 9.29005 29.2785 8.68725 28.4546 8.68725Z" fill="#B1D6CE"/>
<path d="M52.5496 0.489136V20.7734C52.5496 21.6776 52.6902 22.3508 52.9715 22.7928C53.2528 23.2148 53.7552 23.4258 54.4785 23.4258V24.0587C53.8556 23.9984 53.2327 23.9683 52.6098 23.9683C51.7659 23.9683 50.9722 23.9984 50.2288 24.0587C49.5054 24.119 48.8323 24.2295 48.2094 24.3903V4.10595C48.2094 3.20175 48.0687 2.53867 47.7874 2.1167C47.5262 1.67465 47.0239 1.45362 46.2804 1.45362V0.820678C46.9234 0.880958 47.5463 0.911097 48.1491 0.911097C48.9729 0.911097 49.7566 0.880958 50.5 0.820678C51.2435 0.740304 51.9267 0.62979 52.5496 0.489136ZM44.8638 8.08445C45.7479 8.08445 46.5215 8.23515 47.1846 8.53655C47.8678 8.81786 48.4003 9.3001 48.782 9.98328L48.4203 10.3148C48.1591 9.83258 47.8075 9.49099 47.3654 9.29005C46.9435 9.06903 46.4914 8.95851 46.0091 8.95851C44.9844 8.95851 44.1706 9.56131 43.5678 10.7669C42.965 11.9524 42.6736 13.791 42.6937 16.2826C42.6937 17.9905 42.8042 19.3569 43.0253 20.3816C43.2664 21.3863 43.5979 22.1097 44.0199 22.5517C44.4619 22.9938 44.9643 23.2148 45.5269 23.2148C46.2101 23.2148 46.8229 22.9435 47.3654 22.401C47.908 21.8585 48.1993 21.1251 48.2395 20.2008L48.3902 21.2557C48.0888 22.3206 47.5965 23.1344 46.9133 23.697C46.2503 24.2396 45.3762 24.5108 44.2912 24.5108C43.1056 24.5108 42.0407 24.2195 41.0963 23.6368C40.172 23.054 39.4486 22.1599 38.9262 20.9543C38.4038 19.7286 38.1426 18.1513 38.1426 16.2223C38.1426 14.3938 38.4339 12.8868 39.0166 11.7013C39.5993 10.4957 40.393 9.59146 41.3977 8.98865C42.4225 8.38585 43.5778 8.08445 44.8638 8.08445Z" fill="#B1D6CE"/>
<path d="M63.5102 8.08445C65.2784 8.08445 66.6649 8.60688 67.6695 9.65174C68.6742 10.6966 69.1765 12.4045 69.1765 14.7756H59.2604L59.2002 14.2029H65.3789C65.399 13.2183 65.3387 12.3141 65.198 11.4903C65.0574 10.6464 64.8364 9.97323 64.535 9.47089C64.2336 8.96856 63.8317 8.71739 63.3294 8.71739C62.6261 8.71739 62.0233 9.15945 61.5209 10.0436C61.0387 10.9277 60.7473 12.3945 60.6469 14.444L60.7373 14.6249C60.7172 14.866 60.6971 15.1171 60.677 15.3784C60.677 15.6396 60.677 15.9108 60.677 16.1921C60.677 17.5786 60.8679 18.7038 61.2497 19.5678C61.6516 20.4319 62.1539 21.0648 62.7567 21.4667C63.3595 21.8484 63.9723 22.0393 64.5952 22.0393C65.0172 22.0393 65.4492 21.979 65.8913 21.8585C66.3534 21.7178 66.8156 21.4767 67.2777 21.1351C67.7399 20.7734 68.1719 20.2711 68.5737 19.6281L69.1163 19.809C68.8751 20.5725 68.4934 21.316 67.9709 22.0393C67.4485 22.7627 66.7854 23.3554 65.9817 23.8176C65.1779 24.2797 64.2135 24.5108 63.0882 24.5108C61.7219 24.5108 60.5163 24.2195 59.4714 23.6368C58.4266 23.054 57.6027 22.1699 56.9999 20.9844C56.4172 19.7989 56.1259 18.2919 56.1259 16.4634C56.1259 14.5947 56.4373 13.0375 57.0602 11.7917C57.7032 10.5459 58.5773 9.6216 59.6824 9.01879C60.8076 8.3959 62.0836 8.08445 63.5102 8.08445Z" fill="#B1D6CE"/>
<path d="M85.1852 8.50641V9.10921C84.8034 9.20968 84.4417 9.4508 84.1001 9.83258C83.7586 10.1943 83.427 10.8172 83.1055 11.7013L78.7051 24.1491C78.3836 24.129 78.052 24.119 77.7104 24.119C77.3889 24.119 77.0674 24.129 76.7459 24.1491L71.381 10.8272C71.0595 10.0436 70.738 9.57136 70.4165 9.41061C70.1151 9.22977 69.8539 9.13935 69.6329 9.13935V8.50641C70.2759 8.5466 70.9389 8.58678 71.6221 8.62697C72.3254 8.64707 73.089 8.65711 73.9128 8.65711C74.5357 8.65711 75.1887 8.64707 75.8719 8.62697C76.5752 8.58678 77.2282 8.5466 77.831 8.50641V9.13935C77.409 9.13935 77.0273 9.15945 76.6857 9.19963C76.3642 9.23982 76.1432 9.37043 76.0226 9.59146C75.902 9.81248 75.9221 10.2043 76.0829 10.7669L79.6093 20.1104L79.3079 20.5323L81.6889 13.9316C82.0707 12.8466 82.2315 11.9625 82.1712 11.2793C82.1109 10.576 81.8899 10.0536 81.5081 9.71202C81.1263 9.35033 80.6139 9.1494 79.9709 9.10921V8.50641C80.2723 8.5265 80.5938 8.5466 80.9354 8.56669C81.2971 8.56669 81.6387 8.57674 81.9602 8.59683C82.3018 8.59683 82.6032 8.59683 82.8644 8.59683C83.2663 8.59683 83.6882 8.58678 84.1303 8.56669C84.5723 8.5466 84.924 8.5265 85.1852 8.50641Z" fill="#B1D6CE"/>
</svg>
