<svg width="432" height="424" viewBox="0 0 432 424" fill="none" xmlns="http://www.w3.org/2000/svg">
<line x1="18.7465" y1="78.3033" x2="49.1751" y2="13.0491" stroke="#B1D6CE" stroke-width="4.5"/>
<line x1="90.7465" y1="78.3033" x2="121.175" y2="13.0491" stroke="#B1D6CE" stroke-width="4.5"/>
<line x1="175.964" y1="13.6093" x2="188.467" y2="84.5154" stroke="#B1D6CE" stroke-width="4.5"/>
<line x1="243.533" y1="84.5154" x2="256.036" y2="13.6093" stroke="#B1D6CE" stroke-opacity="0.4" stroke-width="4.5"/>
<line x1="315.533" y1="84.5154" x2="328.036" y2="13.6093" stroke="#B1D6CE" stroke-width="4.5"/>
<line x1="387.533" y1="84.5154" x2="400.036" y2="13.6093" stroke="#B1D6CE" stroke-width="4.5"/>
<line x1="16.0514" y1="183.229" x2="52.0514" y2="120.875" stroke="#B1D6CE" stroke-width="4.5"/>
<line x1="105.75" y1="194" x2="105.75" y2="122" stroke="#B1D6CE" stroke-opacity="0.4" stroke-width="4.5"/>
<line x1="160.051" y1="183.229" x2="196.051" y2="120.875" stroke="#B1D6CE" stroke-width="4.5"/>
<line x1="249.75" y1="194" x2="249.75" y2="122" stroke="#B1D6CE" stroke-width="4.5"/>
<path d="M297.018 149.402C298.139 149.402 299.056 149.572 299.769 149.912C300.5 150.234 301.145 150.617 301.706 151.058C302.045 151.313 302.3 151.347 302.47 151.16C302.657 150.956 302.784 150.489 302.852 149.759H303.438C303.404 150.421 303.378 151.228 303.361 152.179C303.344 153.113 303.336 154.361 303.336 155.924H302.75C302.665 155.143 302.555 154.48 302.419 153.937C302.283 153.376 302.096 152.884 301.858 152.459C301.621 152.035 301.281 151.653 300.839 151.313C300.415 150.888 299.922 150.574 299.362 150.37C298.801 150.166 298.215 150.065 297.604 150.065C296.687 150.065 295.906 150.311 295.26 150.803C294.615 151.279 294.089 151.933 293.681 152.765C293.29 153.597 293.002 154.54 292.815 155.593C292.628 156.629 292.535 157.707 292.535 158.828C292.535 159.966 292.628 161.061 292.815 162.114C293.019 163.15 293.324 164.076 293.732 164.891C294.156 165.706 294.7 166.352 295.362 166.827C296.025 167.303 296.806 167.54 297.706 167.54C298.266 167.54 298.827 167.439 299.387 167.235C299.965 167.014 300.457 166.7 300.865 166.292C301.527 165.783 301.977 165.154 302.215 164.407C302.453 163.643 302.631 162.632 302.75 161.375H303.336C303.336 162.989 303.344 164.297 303.361 165.299C303.378 166.284 303.404 167.116 303.438 167.795H302.852C302.784 167.065 302.665 166.606 302.495 166.42C302.342 166.233 302.079 166.258 301.706 166.496C301.077 166.938 300.406 167.328 299.693 167.668C298.997 167.99 298.097 168.152 296.993 168.152C295.192 168.152 293.613 167.787 292.254 167.056C290.913 166.326 289.868 165.273 289.121 163.897C288.374 162.522 288 160.866 288 158.93C288 157.028 288.382 155.363 289.146 153.937C289.928 152.51 290.989 151.398 292.331 150.6C293.689 149.801 295.252 149.402 297.018 149.402Z" fill="#B1D6CE"/>
<path d="M312.05 154.268C313.29 154.268 314.377 154.497 315.311 154.956C316.245 155.414 316.976 156.153 317.502 157.172C318.028 158.191 318.292 159.541 318.292 161.223C318.292 162.904 318.028 164.254 317.502 165.273C316.976 166.275 316.245 167.005 315.311 167.464C314.377 167.923 313.29 168.152 312.05 168.152C310.845 168.152 309.766 167.923 308.815 167.464C307.881 167.005 307.142 166.275 306.599 165.273C306.072 164.254 305.809 162.904 305.809 161.223C305.809 159.541 306.072 158.191 306.599 157.172C307.142 156.153 307.881 155.414 308.815 154.956C309.766 154.497 310.845 154.268 312.05 154.268ZM312.05 154.777C311.371 154.777 310.802 155.287 310.344 156.306C309.885 157.308 309.656 158.947 309.656 161.223C309.656 163.498 309.885 165.137 310.344 166.139C310.802 167.141 311.371 167.642 312.05 167.642C312.747 167.642 313.316 167.141 313.757 166.139C314.216 165.137 314.445 163.498 314.445 161.223C314.445 158.947 314.216 157.308 313.757 156.306C313.316 155.287 312.747 154.777 312.05 154.777Z" fill="#B1D6CE"/>
<path d="M332.416 147.848V164.993C332.416 165.757 332.535 166.326 332.772 166.7C333.01 167.056 333.435 167.235 334.046 167.235V167.77C333.52 167.719 332.993 167.693 332.467 167.693C331.753 167.693 331.083 167.719 330.454 167.77C329.843 167.821 329.274 167.914 328.747 168.05V150.905C328.747 150.141 328.629 149.581 328.391 149.224C328.17 148.85 327.745 148.663 327.117 148.663V148.128C327.66 148.179 328.187 148.205 328.696 148.205C329.393 148.205 330.055 148.179 330.683 148.128C331.312 148.061 331.889 147.967 332.416 147.848ZM325.92 154.268C326.667 154.268 327.321 154.395 327.881 154.65C328.459 154.888 328.909 155.295 329.231 155.873L328.926 156.153C328.705 155.746 328.408 155.457 328.034 155.287C327.677 155.1 327.295 155.007 326.888 155.007C326.022 155.007 325.334 155.516 324.824 156.535C324.315 157.537 324.068 159.091 324.085 161.197C324.085 162.641 324.179 163.796 324.366 164.662C324.57 165.511 324.85 166.122 325.206 166.496C325.58 166.87 326.005 167.056 326.48 167.056C327.058 167.056 327.576 166.827 328.034 166.369C328.493 165.91 328.739 165.29 328.773 164.509L328.9 165.401C328.646 166.301 328.229 166.988 327.652 167.464C327.092 167.923 326.353 168.152 325.436 168.152C324.434 168.152 323.534 167.906 322.735 167.413C321.954 166.921 321.343 166.165 320.901 165.146C320.46 164.11 320.239 162.777 320.239 161.146C320.239 159.601 320.485 158.327 320.978 157.325C321.47 156.306 322.141 155.542 322.99 155.032C323.856 154.523 324.833 154.268 325.92 154.268Z" fill="#B1D6CE"/>
<path d="M341.68 154.268C343.174 154.268 344.346 154.71 345.195 155.593C346.045 156.476 346.469 157.919 346.469 159.923H338.088L338.037 159.439H343.259C343.276 158.607 343.225 157.843 343.107 157.147C342.988 156.433 342.801 155.864 342.546 155.44C342.291 155.015 341.952 154.803 341.527 154.803C340.933 154.803 340.423 155.177 339.999 155.924C339.591 156.671 339.345 157.911 339.26 159.643L339.336 159.796C339.319 160 339.302 160.212 339.285 160.433C339.285 160.654 339.285 160.883 339.285 161.121C339.285 162.293 339.447 163.244 339.769 163.974C340.109 164.704 340.534 165.239 341.043 165.579C341.553 165.902 342.071 166.063 342.597 166.063C342.954 166.063 343.319 166.012 343.692 165.91C344.083 165.791 344.474 165.587 344.864 165.299C345.255 164.993 345.62 164.568 345.96 164.025L346.418 164.178C346.214 164.823 345.892 165.451 345.45 166.063C345.009 166.674 344.448 167.175 343.769 167.566C343.09 167.957 342.274 168.152 341.323 168.152C340.168 168.152 339.149 167.906 338.266 167.413C337.383 166.921 336.687 166.173 336.177 165.171C335.685 164.169 335.439 162.895 335.439 161.35C335.439 159.771 335.702 158.454 336.228 157.401C336.772 156.348 337.511 155.567 338.445 155.058C339.396 154.531 340.474 154.268 341.68 154.268Z" fill="#B1D6CE"/>
<path d="M360 154.625V155.134C359.677 155.219 359.372 155.423 359.083 155.746C358.794 156.051 358.514 156.578 358.242 157.325L354.523 167.846C354.251 167.829 353.971 167.821 353.682 167.821C353.41 167.821 353.139 167.829 352.867 167.846L348.332 156.586C348.061 155.924 347.789 155.525 347.517 155.389C347.263 155.236 347.042 155.16 346.855 155.16V154.625C347.398 154.659 347.959 154.693 348.536 154.727C349.131 154.743 349.776 154.752 350.472 154.752C350.999 154.752 351.551 154.743 352.128 154.727C352.723 154.693 353.275 154.659 353.784 154.625V155.16C353.427 155.16 353.105 155.177 352.816 155.211C352.544 155.244 352.358 155.355 352.256 155.542C352.154 155.729 352.171 156.06 352.307 156.535L355.287 164.432L355.032 164.789L357.045 159.21C357.368 158.293 357.503 157.546 357.453 156.968C357.402 156.374 357.215 155.932 356.892 155.644C356.569 155.338 356.136 155.168 355.593 155.134V154.625C355.848 154.642 356.119 154.659 356.408 154.676C356.714 154.676 357.002 154.684 357.274 154.701C357.563 154.701 357.818 154.701 358.038 154.701C358.378 154.701 358.735 154.693 359.108 154.676C359.482 154.659 359.779 154.642 360 154.625Z" fill="#B1D6CE"/>
<line x1="387.533" y1="192.515" x2="400.036" y2="121.609" stroke="#B1D6CE" stroke-width="4.5"/>
<line x1="18.7465" y1="297.676" x2="49.175" y2="232.422" stroke="#B1D6CE" stroke-opacity="0.4" stroke-width="4.5"/>
<line x1="90.7465" y1="297.676" x2="121.175" y2="232.422" stroke="#B1D6CE" stroke-width="4.5"/>
<line x1="144" y1="263.75" x2="216" y2="263.75" stroke="#B1D6CE" stroke-width="4.5"/>
<line x1="249.75" y1="302" x2="249.75" y2="230" stroke="#B1D6CE" stroke-width="4.5"/>
<line x1="321.75" y1="302" x2="321.75" y2="230" stroke="#B1D6CE" stroke-opacity="0.4" stroke-width="4.5"/>
<line x1="412.051" y1="293.479" x2="376.051" y2="231.125" stroke="#B1D6CE" stroke-width="4.5"/>
<line x1="19.9486" y1="336.875" x2="55.9486" y2="399.229" stroke="#B1D6CE" stroke-width="4.5"/>
<line x1="91.9486" y1="336.875" x2="127.949" y2="399.229" stroke="#B1D6CE" stroke-opacity="0.4" stroke-width="4.5"/>
<line x1="163.949" y1="336.875" x2="199.949" y2="399.229" stroke="#B1D6CE" stroke-width="4.5"/>
<line x1="247.965" y1="337.609" x2="260.467" y2="408.515" stroke="#B1D6CE" stroke-width="4.5"/>
<line x1="288" y1="371.75" x2="360" y2="371.75" stroke="#B1D6CE" stroke-width="4.5"/>
<line x1="391.965" y1="337.609" x2="404.467" y2="408.515" stroke="#B1D6CE" stroke-opacity="0.4" stroke-width="4.5"/>
</svg>
